<svg id="Layer_1" data-name="Layer 1" xmlns="http://www.w3.org/2000/svg" xmlns:xlink="http://www.w3.org/1999/xlink" viewBox="0 0 2000 2000"><defs><style>.cls-1{fill:none;}.cls-2{fill:url(#radial-gradient);}.cls-3{fill:url(#radial-gradient-2);}.cls-4{clip-path:url(#clip-path);}.cls-5{clip-path:url(#clip-path-2);}.cls-6{fill:#fee4d2;}</style><radialGradient id="radial-gradient" cx="1003.5" cy="1242" r="502.86" gradientUnits="userSpaceOnUse"><stop offset="0" stop-color="#b0764e"/><stop offset="0.46" stop-color="#ad744b"/><stop offset="0.82" stop-color="#a36c42"/><stop offset="1" stop-color="#9b653a"/></radialGradient><radialGradient id="radial-gradient-2" cx="976.5" cy="634.5" r="590.94" gradientUnits="userSpaceOnUse"><stop offset="0" stop-color="#be1e2d"/><stop offset="0.58" stop-color="#9e1421"/><stop offset="1" stop-color="#8b0e1a"/></radialGradient><clipPath id="clip-path"><rect class="cls-1" x="198" y="198" width="1611" height="783"/></clipPath><clipPath id="clip-path-2"><ellipse class="cls-1" cx="976.5" cy="738" rx="760.5" ry="450"/></clipPath></defs><path class="cls-2" d="M1505.14,771.1l-67.59,946.21a30.9,30.9,0,0,1-30.82,28.69H600.27a30.9,30.9,0,0,1-30.82-28.69L501.86,771.1A30.9,30.9,0,0,1,532.68,738h941.64A30.9,30.9,0,0,1,1505.14,771.1Z"/><path class="cls-3" d="M976.5,288c420,0,760.5,201.47,760.5,450,0,83.91-38.81,162.46-106.4,229.7a45.71,45.71,0,0,1-32.24,13.3H354.64a45.71,45.71,0,0,1-32.24-13.3C254.81,900.46,216,821.91,216,738,216,489.47,556.49,288,976.5,288Z"/><g class="cls-4"><g class="cls-5"><circle class="cls-6" cx="450" cy="774" r="126"/><circle class="cls-6" cx="958.5" cy="625.5" r="112.5"/><circle class="cls-6" cx="1246.5" cy="805.5" r="103.5"/><circle class="cls-6" cx="1498.5" cy="562.5" r="103.5"/><circle class="cls-6" cx="823.5" cy="913.5" r="94.5"/><circle class="cls-6" cx="630" cy="387" r="117"/><circle class="cls-6" cx="1138.5" cy="337.5" r="94.5"/><circle class="cls-6" cx="1669.5" cy="868.5" r="94.5"/><circle class="cls-6" cx="1454.75" cy="914.75" r="50.75"/></g></g></svg>